# xmcd CD database file
#
# Track frame offsets:
#	150
#	16415
#	37327
#	53027
#	66374
#	86995
#	104763
#	119951
#	138119
#	150640
#	174592
#	200785
#	219543
#	234129
#	246514
#	264693
#
# Disc length: 3677 seconds
#
# Revision: 1
# Processed by: cddbd v1.5.1PL2 Copyright (c) Steve Scherf et al.
# Submitted via: CDex 1.51
#
DISCID=fb0e5b10
DTITLE=Sam Miltich - May Rain
DYEAR=2004
DGENRE=Jazz
TTITLE0=I Found a New Baby
TTITLE1=Je Suis Ceul Ce Soir
TTITLE2=May Rain
TTITLE3=Blythe Spirit Samba
TTITLE4=Estate
TTITLE5=Echoes of Spain
TTITLE6=Indifference
TTITLE7=J'attendrai
TTITLE8=Recieta de Samba
TTITLE9=Tears
TTITLE10=Bossa Dorado
TTITLE11=Douce Ambience
TTITLE12=La Tzigane Qui Danse
TTITLE13=Inspiracao
TTITLE14=La Bossa du Grand Marais
TTITLE15=Ask Me Now
EXTD=YEAR: 2004
EXTT0=
EXTT1=
EXTT2=
EXTT3=
EXTT4=
EXTT5=
EXTT6=
EXTT7=
EXTT8=
EXTT9=
EXTT10=
EXTT11=
EXTT12=
EXTT13=
EXTT14=
EXTT15=
PLAYORDER=
